# xmcd
#
# Track frame offsets:
#	150
#	5584
#	19083
#	35659
#	54737
#	72835
#	91717
#	129953
#	148064
#	168551
#	186684
#	201874
#
# Disc length: 2909 seconds
#
# Revision: 0
# Processed by: cddbd v1.5.2PL0 Copyright (c) Steve Scherf et al.
# Submitted via: EasyCDDAExtractor 8.2.2.1
#
DISCID=ac0b5b0c
DTITLE=Корейские LЁDчики - С Антоном срал на одной грядке
DYEAR=2007
DGENRE=blues
TTITLE0=Intro
TTITLE1=Хочу я с диджеем Антоном плакаты
TTITLE2=Биография
TTITLE3=Влаадивостокчане
TTITLE4=Путин (feat. Polittechno)
TTITLE5=Куколь (Радио Радонеж Mix)
TTITLE6=Пушкин
TTITLE7=Тем, кто дожил до зимы
TTITLE8=Честь (feat. Анатолий Углич)
TTITLE9=Ленин
TTITLE10=Хитовые рингтоны
TTITLE11=Outro (Телега за Антона)
EXTD=
EXTT0=
EXTT1=
EXTT2=
EXTT3=
EXTT4=
EXTT5=
EXTT6=
EXTT7=
EXTT8=
EXTT9=
EXTT10=
EXTT11=
PLAYORDER=
